<?xml version="1.0" encoding="utf-8"?>
<!-- Generator: Adobe Illustrator 16.0.0, SVG Export Plug-In . SVG Version: 6.00 Build 0)  -->
<!DOCTYPE svg PUBLIC "-//W3C//DTD SVG 1.1//EN" "http://www.w3.org/Graphics/SVG/1.1/DTD/svg11.dtd">
<svg version="1.1" id="visual" xmlns="http://www.w3.org/2000/svg" xmlns:xlink="http://www.w3.org/1999/xlink" x="0px" y="0px"
	 width="1920px" height="172.237px" viewBox="0 0 1920 172.237" enable-background="new 0 0 1920 172.237" xml:space="preserve">
<path fill="#004643" d="M0,146l53.3-3c53.4-3,160-9,266.7-19.7c106.7-10.6,213.3-26,320-20.6c106.7,5.3,213.3,31.3,320,46.6
	c106.7,15.4,213.3,20,320,22s213.3,1.4,320-7.8s213.3-26.8,266.7-35.7l53.3-8.8V0h-53.3c-53.4,0-160,0-266.7,0s-213.3,0-320,0
	s-213.3,0-320,0S746.7,0,640,0S426.7,0,320,0S106.7,0,53.3,0H0V146z"/>
</svg>
